<mxfile host="65bd71144e">
    <diagram id="5E2SRUc36PljixkyVC0b" name="Page-1">
        <mxGraphModel dx="1453" dy="1971" grid="1" gridSize="10" guides="1" tooltips="1" connect="1" arrows="1" fold="1" page="1" pageScale="1" pageWidth="827" pageHeight="1169" math="0" shadow="0">
            <root>
                <mxCell id="0"/>
                <mxCell id="1" parent="0"/>
                <mxCell id="6" value="" style="ellipse;whiteSpace=wrap;html=1;aspect=fixed;" parent="1" vertex="1">
                    <mxGeometry x="215" y="100" width="270" height="270" as="geometry"/>
                </mxCell>
                <mxCell id="5" value="" style="ellipse;whiteSpace=wrap;html=1;aspect=fixed;" parent="1" vertex="1">
                    <mxGeometry x="280" y="160" width="140" height="140" as="geometry"/>
                </mxCell>
                <mxCell id="7" value="2" style="rounded=1;whiteSpace=wrap;html=1;" parent="1" vertex="1">
                    <mxGeometry x="430" y="245" width="40" height="20" as="geometry"/>
                </mxCell>
                <mxCell id="8" value="0" style="rounded=1;whiteSpace=wrap;html=1;" parent="1" vertex="1">
                    <mxGeometry x="220" y="225" width="40" height="20" as="geometry"/>
                </mxCell>
                <mxCell id="9" value="1" style="rounded=1;whiteSpace=wrap;html=1;" parent="1" vertex="1">
                    <mxGeometry x="330" y="330" width="40" height="20" as="geometry"/>
                </mxCell>
                <mxCell id="16" value="3" style="rounded=1;whiteSpace=wrap;html=1;" parent="1" vertex="1">
                    <mxGeometry x="330" y="120" width="40" height="20" as="geometry"/>
                </mxCell>
                <mxCell id="17" value="Text" style="text;html=1;strokeColor=none;fillColor=none;align=center;verticalAlign=middle;whiteSpace=wrap;rounded=0;" vertex="1" parent="1">
                    <mxGeometry x="490" y="-410" width="60" height="30" as="geometry"/>
                </mxCell>
                <mxCell id="23" style="edgeStyle=none;html=1;exitX=1;exitY=0.5;exitDx=0;exitDy=0;entryX=0;entryY=0.5;entryDx=0;entryDy=0;" edge="1" parent="1" source="18" target="19">
                    <mxGeometry relative="1" as="geometry">
                        <Array as="points">
                            <mxPoint x="460" y="-980"/>
                        </Array>
                    </mxGeometry>
                </mxCell>
                <mxCell id="18" value="this is eas" style="rounded=1;whiteSpace=wrap;html=1;" vertex="1" parent="1">
                    <mxGeometry x="670" y="-960" width="120" height="60" as="geometry"/>
                </mxCell>
                <mxCell id="19" value="g" style="rounded=1;whiteSpace=wrap;html=1;" vertex="1" parent="1">
                    <mxGeometry x="140" y="-870" width="120" height="60" as="geometry"/>
                </mxCell>
                <mxCell id="24" value="g" style="rounded=1;whiteSpace=wrap;html=1;" vertex="1" parent="1">
                    <mxGeometry x="420" y="-860" width="120" height="60" as="geometry"/>
                </mxCell>
            </root>
        </mxGraphModel>
    </diagram>
</mxfile>